<?xml version="1.0" encoding="UTF-8" standalone="no"?>
<!DOCTYPE svg PUBLIC "-//W3C//DTD SVG 1.1//EN"
 "http://www.w3.org/Graphics/SVG/1.1/DTD/svg11.dtd">
<!-- Generated by graphviz version 2.40.1 (20161225.0304)
 -->
<!-- Title: dependencies Pages: 1 -->
<svg width="4806pt" height="211pt"
 viewBox="0.00 0.00 4806.00 211.00" xmlns="http://www.w3.org/2000/svg" xmlns:xlink="http://www.w3.org/1999/xlink">
<g id="graph0" class="graph" transform="scale(1 1) rotate(0) translate(4 207)">
<title>dependencies</title>
<polygon fill="#ffffff" stroke="transparent" points="-4,4 -4,-207 4802,-207 4802,4 -4,4"/>
<text text-anchor="start" x="2378.0091" y="-42.4" font-family="sans-serif" font-weight="bold" font-size="14.00" fill="#000000">Legend</text>
<polygon fill="#ffffb3" stroke="transparent" points="2165,-10 2165,-30 2185,-30 2185,-10 2165,-10"/>
<text text-anchor="start" x="2188.629" y="-15.4" font-family="sans-serif" font-size="14.00" fill="#000000"> &#160;Declarations</text>
<polygon fill="#8dd3c7" stroke="transparent" points="2278,-10 2278,-30 2298,-30 2298,-10 2278,-10"/>
<text text-anchor="start" x="2301.7251" y="-15.4" font-family="sans-serif" font-size="14.00" fill="#000000"> &#160;Module</text>
<polygon fill="#80b1d3" stroke="transparent" points="2364,-10 2364,-30 2384,-30 2384,-10 2364,-10"/>
<text text-anchor="start" x="2387.7812" y="-15.4" font-family="sans-serif" font-size="14.00" fill="#000000"> &#160;Bootstrap</text>
<polygon fill="#fdb462" stroke="transparent" points="2461,-10 2461,-30 2481,-30 2481,-10 2461,-10"/>
<text text-anchor="start" x="2484.6732" y="-15.4" font-family="sans-serif" font-size="14.00" fill="#000000"> &#160;Providers</text>
<polygon fill="#fb8072" stroke="transparent" points="2557,-10 2557,-30 2577,-30 2577,-10 2557,-10"/>
<text text-anchor="start" x="2580.7258" y="-15.4" font-family="sans-serif" font-size="14.00" fill="#000000"> &#160;Exports</text>
<g id="clust1" class="cluster">
<title>cluster_MaterialModule</title>
<polygon fill="none" stroke="#000000" stroke-dasharray="1,5" points="8,-70 8,-195 4790,-195 4790,-70 8,-70"/>
</g>
<g id="clust4" class="cluster">
<title>cluster_MaterialModule_exports</title>
<polygon fill="none" stroke="#000000" points="16,-135 16,-187 4782,-187 4782,-135 16,-135"/>
</g>
<!-- CdkTableModule  -->
<g id="node1" class="node">
<title>CdkTableModule </title>
<polygon fill="#fb8072" stroke="#000000" points="4774.2591,-179 4655.7409,-179 4655.7409,-143 4774.2591,-143 4774.2591,-179"/>
<text text-anchor="middle" x="4715" y="-156.8" font-family="Times,serif" font-size="14.00" fill="#000000">CdkTableModule </text>
</g>
<!-- MatAutocompleteModule  -->
<g id="node2" class="node">
<title>MatAutocompleteModule </title>
<polygon fill="#fb8072" stroke="#000000" points="4637.4124,-179 4472.5876,-179 4472.5876,-143 4637.4124,-143 4637.4124,-179"/>
<text text-anchor="middle" x="4555" y="-156.8" font-family="Times,serif" font-size="14.00" fill="#000000">MatAutocompleteModule </text>
</g>
<!-- MatButtonModule  -->
<g id="node3" class="node">
<title>MatButtonModule </title>
<polygon fill="#fb8072" stroke="#000000" points="4454.7177,-179 4331.2823,-179 4331.2823,-143 4454.7177,-143 4454.7177,-179"/>
<text text-anchor="middle" x="4393" y="-156.8" font-family="Times,serif" font-size="14.00" fill="#000000">MatButtonModule </text>
</g>
<!-- MatButtonToggleModule  -->
<g id="node4" class="node">
<title>MatButtonToggleModule </title>
<polygon fill="#fb8072" stroke="#000000" points="4312.8756,-179 4149.1244,-179 4149.1244,-143 4312.8756,-143 4312.8756,-179"/>
<text text-anchor="middle" x="4231" y="-156.8" font-family="Times,serif" font-size="14.00" fill="#000000">MatButtonToggleModule </text>
</g>
<!-- MatCardModule  -->
<g id="node5" class="node">
<title>MatCardModule </title>
<polygon fill="#fb8072" stroke="#000000" points="4131.3116,-179 4018.6884,-179 4018.6884,-143 4131.3116,-143 4131.3116,-179"/>
<text text-anchor="middle" x="4075" y="-156.8" font-family="Times,serif" font-size="14.00" fill="#000000">MatCardModule </text>
</g>
<!-- MatCheckboxModule  -->
<g id="node6" class="node">
<title>MatCheckboxModule </title>
<polygon fill="#fb8072" stroke="#000000" points="4000.3659,-179 3857.6341,-179 3857.6341,-143 4000.3659,-143 4000.3659,-179"/>
<text text-anchor="middle" x="3929" y="-156.8" font-family="Times,serif" font-size="14.00" fill="#000000">MatCheckboxModule </text>
</g>
<!-- MatChipsModule  -->
<g id="node7" class="node">
<title>MatChipsModule </title>
<polygon fill="#fb8072" stroke="#000000" points="3840.2717,-179 3721.7283,-179 3721.7283,-143 3840.2717,-143 3840.2717,-179"/>
<text text-anchor="middle" x="3781" y="-156.8" font-family="Times,serif" font-size="14.00" fill="#000000">MatChipsModule </text>
</g>
<!-- MatStepperModule  -->
<g id="node8" class="node">
<title>MatStepperModule </title>
<polygon fill="#fb8072" stroke="#000000" points="3704.3631,-179 3575.6369,-179 3575.6369,-143 3704.3631,-143 3704.3631,-179"/>
<text text-anchor="middle" x="3640" y="-156.8" font-family="Times,serif" font-size="14.00" fill="#000000">MatStepperModule </text>
</g>
<!-- MatDatepickerModule  -->
<g id="node9" class="node">
<title>MatDatepickerModule </title>
<polygon fill="#fb8072" stroke="#000000" points="3557.5064,-179 3410.4936,-179 3410.4936,-143 3557.5064,-143 3557.5064,-179"/>
<text text-anchor="middle" x="3484" y="-156.8" font-family="Times,serif" font-size="14.00" fill="#000000">MatDatepickerModule </text>
</g>
<!-- MatDialogModule  -->
<g id="node10" class="node">
<title>MatDialogModule </title>
<polygon fill="#fb8072" stroke="#000000" points="3392.7024,-179 3269.2976,-179 3269.2976,-143 3392.7024,-143 3392.7024,-179"/>
<text text-anchor="middle" x="3331" y="-156.8" font-family="Times,serif" font-size="14.00" fill="#000000">MatDialogModule </text>
</g>
<!-- MatExpansionModule  -->
<g id="node11" class="node">
<title>MatExpansionModule </title>
<polygon fill="#fb8072" stroke="#000000" points="3251.2023,-179 3106.7977,-179 3106.7977,-143 3251.2023,-143 3251.2023,-179"/>
<text text-anchor="middle" x="3179" y="-156.8" font-family="Times,serif" font-size="14.00" fill="#000000">MatExpansionModule </text>
</g>
<!-- MatGridListModule  -->
<g id="node12" class="node">
<title>MatGridListModule </title>
<polygon fill="#fb8072" stroke="#000000" points="3088.5358,-179 2955.4642,-179 2955.4642,-143 3088.5358,-143 3088.5358,-179"/>
<text text-anchor="middle" x="3022" y="-156.8" font-family="Times,serif" font-size="14.00" fill="#000000">MatGridListModule </text>
</g>
<!-- MatIconModule  -->
<g id="node13" class="node">
<title>MatIconModule </title>
<polygon fill="#fb8072" stroke="#000000" points="2937.4758,-179 2826.5242,-179 2826.5242,-143 2937.4758,-143 2937.4758,-179"/>
<text text-anchor="middle" x="2882" y="-156.8" font-family="Times,serif" font-size="14.00" fill="#000000">MatIconModule </text>
</g>
<!-- MatInputModule  -->
<g id="node14" class="node">
<title>MatInputModule </title>
<polygon fill="#fb8072" stroke="#000000" points="2808.6509,-179 2693.3491,-179 2693.3491,-143 2808.6509,-143 2808.6509,-179"/>
<text text-anchor="middle" x="2751" y="-156.8" font-family="Times,serif" font-size="14.00" fill="#000000">MatInputModule </text>
</g>
<!-- MatListModule  -->
<g id="node15" class="node">
<title>MatListModule </title>
<polygon fill="#fb8072" stroke="#000000" points="2675.8787,-179 2568.1213,-179 2568.1213,-143 2675.8787,-143 2675.8787,-179"/>
<text text-anchor="middle" x="2622" y="-156.8" font-family="Times,serif" font-size="14.00" fill="#000000">MatListModule </text>
</g>
<!-- MatMenuModule  -->
<g id="node16" class="node">
<title>MatMenuModule </title>
<polygon fill="#fb8072" stroke="#000000" points="2550.2591,-179 2431.7409,-179 2431.7409,-143 2550.2591,-143 2550.2591,-179"/>
<text text-anchor="middle" x="2491" y="-156.8" font-family="Times,serif" font-size="14.00" fill="#000000">MatMenuModule </text>
</g>
<!-- MatNativeDateModule  -->
<g id="node17" class="node">
<title>MatNativeDateModule </title>
<polygon fill="#fb8072" stroke="#000000" points="2413.8434,-179 2264.1566,-179 2264.1566,-143 2413.8434,-143 2413.8434,-179"/>
<text text-anchor="middle" x="2339" y="-156.8" font-family="Times,serif" font-size="14.00" fill="#000000">MatNativeDateModule </text>
</g>
<!-- MatPaginatorModule  -->
<g id="node18" class="node">
<title>MatPaginatorModule </title>
<polygon fill="#fb8072" stroke="#000000" points="2246.7534,-179 2107.2466,-179 2107.2466,-143 2246.7534,-143 2246.7534,-179"/>
<text text-anchor="middle" x="2177" y="-156.8" font-family="Times,serif" font-size="14.00" fill="#000000">MatPaginatorModule </text>
</g>
<!-- MatProgressBarModule  -->
<g id="node19" class="node">
<title>MatProgressBarModule </title>
<polygon fill="#fb8072" stroke="#000000" points="2089.019,-179 1934.981,-179 1934.981,-143 2089.019,-143 2089.019,-179"/>
<text text-anchor="middle" x="2012" y="-156.8" font-family="Times,serif" font-size="14.00" fill="#000000">MatProgressBarModule </text>
</g>
<!-- MatProgressSpinnerModule  -->
<g id="node20" class="node">
<title>MatProgressSpinnerModule </title>
<polygon fill="#fb8072" stroke="#000000" points="1916.856,-179 1739.144,-179 1739.144,-143 1916.856,-143 1916.856,-179"/>
<text text-anchor="middle" x="1828" y="-156.8" font-family="Times,serif" font-size="14.00" fill="#000000">MatProgressSpinnerModule </text>
</g>
<!-- MatRadioModule  -->
<g id="node21" class="node">
<title>MatRadioModule </title>
<polygon fill="#fb8072" stroke="#000000" points="1721.5414,-179 1602.4586,-179 1602.4586,-143 1721.5414,-143 1721.5414,-179"/>
<text text-anchor="middle" x="1662" y="-156.8" font-family="Times,serif" font-size="14.00" fill="#000000">MatRadioModule </text>
</g>
<!-- MatRippleModule  -->
<g id="node22" class="node">
<title>MatRippleModule </title>
<polygon fill="#fb8072" stroke="#000000" points="1584.432,-179 1461.568,-179 1461.568,-143 1584.432,-143 1584.432,-179"/>
<text text-anchor="middle" x="1523" y="-156.8" font-family="Times,serif" font-size="14.00" fill="#000000">MatRippleModule </text>
</g>
<!-- MatSelectModule  -->
<g id="node23" class="node">
<title>MatSelectModule </title>
<polygon fill="#fb8072" stroke="#000000" points="1443.8074,-179 1324.1926,-179 1324.1926,-143 1443.8074,-143 1443.8074,-179"/>
<text text-anchor="middle" x="1384" y="-156.8" font-family="Times,serif" font-size="14.00" fill="#000000">MatSelectModule </text>
</g>
<!-- MatSidenavModule  -->
<g id="node24" class="node">
<title>MatSidenavModule </title>
<polygon fill="#fb8072" stroke="#000000" points="1306.2023,-179 1175.7977,-179 1175.7977,-143 1306.2023,-143 1306.2023,-179"/>
<text text-anchor="middle" x="1241" y="-156.8" font-family="Times,serif" font-size="14.00" fill="#000000">MatSidenavModule </text>
</g>
<!-- MatSliderModule  -->
<g id="node25" class="node">
<title>MatSliderModule </title>
<polygon fill="#fb8072" stroke="#000000" points="1157.5386,-179 1038.4614,-179 1038.4614,-143 1157.5386,-143 1157.5386,-179"/>
<text text-anchor="middle" x="1098" y="-156.8" font-family="Times,serif" font-size="14.00" fill="#000000">MatSliderModule </text>
</g>
<!-- MatSlideToggleModule  -->
<g id="node26" class="node">
<title>MatSlideToggleModule </title>
<polygon fill="#fb8072" stroke="#000000" points="1020.0358,-179 865.9642,-179 865.9642,-143 1020.0358,-143 1020.0358,-179"/>
<text text-anchor="middle" x="943" y="-156.8" font-family="Times,serif" font-size="14.00" fill="#000000">MatSlideToggleModule </text>
</g>
<!-- MatSnackBarModule  -->
<g id="node27" class="node">
<title>MatSnackBarModule </title>
<polygon fill="#fb8072" stroke="#000000" points="848.0232,-179 707.9768,-179 707.9768,-143 848.0232,-143 848.0232,-179"/>
<text text-anchor="middle" x="778" y="-156.8" font-family="Times,serif" font-size="14.00" fill="#000000">MatSnackBarModule </text>
</g>
<!-- MatSortModule  -->
<g id="node28" class="node">
<title>MatSortModule </title>
<polygon fill="#fb8072" stroke="#000000" points="690.4334,-179 581.5666,-179 581.5666,-143 690.4334,-143 690.4334,-179"/>
<text text-anchor="middle" x="636" y="-156.8" font-family="Times,serif" font-size="14.00" fill="#000000">MatSortModule </text>
</g>
<!-- MatTableModule  -->
<g id="node29" class="node">
<title>MatTableModule </title>
<polygon fill="#fb8072" stroke="#000000" points="563.973,-179 446.027,-179 446.027,-143 563.973,-143 563.973,-179"/>
<text text-anchor="middle" x="505" y="-156.8" font-family="Times,serif" font-size="14.00" fill="#000000">MatTableModule </text>
</g>
<!-- MatTabsModule  -->
<g id="node30" class="node">
<title>MatTabsModule </title>
<polygon fill="#fb8072" stroke="#000000" points="428.3116,-179 315.6884,-179 315.6884,-143 428.3116,-143 428.3116,-179"/>
<text text-anchor="middle" x="372" y="-156.8" font-family="Times,serif" font-size="14.00" fill="#000000">MatTabsModule </text>
</g>
<!-- MatToolbarModule  -->
<g id="node31" class="node">
<title>MatToolbarModule </title>
<polygon fill="#fb8072" stroke="#000000" points="297.918,-179 168.082,-179 168.082,-143 297.918,-143 297.918,-179"/>
<text text-anchor="middle" x="233" y="-156.8" font-family="Times,serif" font-size="14.00" fill="#000000">MatToolbarModule </text>
</g>
<!-- MatTooltipModule  -->
<g id="node32" class="node">
<title>MatTooltipModule </title>
<polygon fill="#fb8072" stroke="#000000" points="150.3241,-179 23.6759,-179 23.6759,-143 150.3241,-143 150.3241,-179"/>
<text text-anchor="middle" x="87" y="-156.8" font-family="Times,serif" font-size="14.00" fill="#000000">MatTooltipModule </text>
</g>
<!-- MaterialModule -->
<g id="node33" class="node">
<title>MaterialModule</title>
<polygon fill="#8dd3c7" stroke="#000000" points="2468.4706,-114 2465.4706,-118 2444.4706,-118 2441.4706,-114 2361.5294,-114 2361.5294,-78 2468.4706,-78 2468.4706,-114"/>
<text text-anchor="middle" x="2415" y="-91.8" font-family="Times,serif" font-size="14.00" fill="#000000">MaterialModule</text>
</g>
<!-- MaterialModule&#45;&gt;CdkTableModule  -->
<g id="edge1" class="edge">
<title>MaterialModule&#45;&gt;CdkTableModule </title>
<path fill="none" stroke="#000000" stroke-dasharray="5,2" d="M2468.7461,-81C2814.8232,-81 4715,-81 4715,-81 4715,-81 4715,-132.8468 4715,-132.8468"/>
<polygon fill="#000000" stroke="#000000" points="4711.5001,-132.8467 4715,-142.8468 4718.5001,-132.8468 4711.5001,-132.8467"/>
</g>
<!-- MaterialModule&#45;&gt;MatAutocompleteModule  -->
<g id="edge2" class="edge">
<title>MaterialModule&#45;&gt;MatAutocompleteModule </title>
<path fill="none" stroke="#000000" stroke-dasharray="5,2" d="M2468.701,-83C2800.2811,-83 4555,-83 4555,-83 4555,-83 4555,-132.9092 4555,-132.9092"/>
<polygon fill="#000000" stroke="#000000" points="4551.5001,-132.9091 4555,-142.9092 4558.5001,-132.9092 4551.5001,-132.9091"/>
</g>
<!-- MaterialModule&#45;&gt;MatButtonModule  -->
<g id="edge3" class="edge">
<title>MaterialModule&#45;&gt;MatButtonModule </title>
<path fill="none" stroke="#000000" stroke-dasharray="5,2" d="M2468.6753,-85C2785.0779,-85 4393,-85 4393,-85 4393,-85 4393,-132.9891 4393,-132.9891"/>
<polygon fill="#000000" stroke="#000000" points="4389.5001,-132.989 4393,-142.9891 4396.5001,-132.9891 4389.5001,-132.989"/>
</g>
<!-- MaterialModule&#45;&gt;MatButtonToggleModule  -->
<g id="edge4" class="edge">
<title>MaterialModule&#45;&gt;MatButtonToggleModule </title>
<path fill="none" stroke="#000000" stroke-dasharray="5,2" d="M2468.8566,-87C2769.9191,-87 4231,-87 4231,-87 4231,-87 4231,-132.7079 4231,-132.7079"/>
<polygon fill="#000000" stroke="#000000" points="4227.5001,-132.7078 4231,-142.7079 4234.5001,-132.7079 4227.5001,-132.7078"/>
</g>
<!-- MaterialModule&#45;&gt;MatCardModule  -->
<g id="edge5" class="edge">
<title>MaterialModule&#45;&gt;MatCardModule </title>
<path fill="none" stroke="#000000" stroke-dasharray="5,2" d="M2468.8183,-90C2753.9317,-90 4075,-90 4075,-90 4075,-90 4075,-132.7157 4075,-132.7157"/>
<polygon fill="#000000" stroke="#000000" points="4071.5001,-132.7157 4075,-142.7157 4078.5001,-132.7158 4071.5001,-132.7157"/>
</g>
<!-- MaterialModule&#45;&gt;MatCheckboxModule  -->
<g id="edge6" class="edge">
<title>MaterialModule&#45;&gt;MatCheckboxModule </title>
<path fill="none" stroke="#000000" stroke-dasharray="5,2" d="M2468.8841,-92C2738.587,-92 3929,-92 3929,-92 3929,-92 3929,-132.8711 3929,-132.8711"/>
<polygon fill="#000000" stroke="#000000" points="3925.5001,-132.871 3929,-142.8711 3932.5001,-132.8711 3925.5001,-132.871"/>
</g>
<!-- MaterialModule&#45;&gt;MatChipsModule  -->
<g id="edge7" class="edge">
<title>MaterialModule&#45;&gt;MatChipsModule </title>
<path fill="none" stroke="#000000" stroke-dasharray="5,2" d="M2468.5488,-94C2721.1025,-94 3781,-94 3781,-94 3781,-94 3781,-132.692 3781,-132.692"/>
<polygon fill="#000000" stroke="#000000" points="3777.5001,-132.6919 3781,-142.692 3784.5001,-132.692 3777.5001,-132.6919"/>
</g>
<!-- MaterialModule&#45;&gt;MatStepperModule  -->
<g id="edge8" class="edge">
<title>MaterialModule&#45;&gt;MatStepperModule </title>
<path fill="none" stroke="#000000" stroke-dasharray="5,2" d="M2468.8202,-96C2705.247,-96 3640,-96 3640,-96 3640,-96 3640,-132.8939 3640,-132.8939"/>
<polygon fill="#000000" stroke="#000000" points="3636.5001,-132.8938 3640,-142.8939 3643.5001,-132.8939 3636.5001,-132.8938"/>
</g>
<!-- MaterialModule&#45;&gt;MatDatepickerModule  -->
<g id="edge9" class="edge">
<title>MaterialModule&#45;&gt;MatDatepickerModule </title>
<path fill="none" stroke="#000000" stroke-dasharray="5,2" d="M2468.7445,-99C2685.5195,-99 3484,-99 3484,-99 3484,-99 3484,-132.7333 3484,-132.7333"/>
<polygon fill="#000000" stroke="#000000" points="3480.5001,-132.7333 3484,-142.7333 3487.5001,-132.7333 3480.5001,-132.7333"/>
</g>
<!-- MaterialModule&#45;&gt;MatDialogModule  -->
<g id="edge10" class="edge">
<title>MaterialModule&#45;&gt;MatDialogModule </title>
<path fill="none" stroke="#000000" stroke-dasharray="5,2" d="M2468.5433,-101C2664.4674,-101 3331,-101 3331,-101 3331,-101 3331,-132.998 3331,-132.998"/>
<polygon fill="#000000" stroke="#000000" points="3327.5001,-132.998 3331,-142.998 3334.5001,-132.9981 3327.5001,-132.998"/>
</g>
<!-- MaterialModule&#45;&gt;MatExpansionModule  -->
<g id="edge11" class="edge">
<title>MaterialModule&#45;&gt;MatExpansionModule </title>
<path fill="none" stroke="#000000" stroke-dasharray="5,2" d="M2468.723,-103C2642.6256,-103 3179,-103 3179,-103 3179,-103 3179,-132.9664 3179,-132.9664"/>
<polygon fill="#000000" stroke="#000000" points="3175.5001,-132.9663 3179,-142.9664 3182.5001,-132.9664 3175.5001,-132.9663"/>
</g>
<!-- MaterialModule&#45;&gt;MatGridListModule  -->
<g id="edge12" class="edge">
<title>MaterialModule&#45;&gt;MatGridListModule </title>
<path fill="none" stroke="#000000" stroke-dasharray="5,2" d="M2468.6009,-105C2616.9388,-105 3022,-105 3022,-105 3022,-105 3022,-132.973 3022,-132.973"/>
<polygon fill="#000000" stroke="#000000" points="3018.5001,-132.973 3022,-142.973 3025.5001,-132.973 3018.5001,-132.973"/>
</g>
<!-- MaterialModule&#45;&gt;MatIconModule  -->
<g id="edge13" class="edge">
<title>MaterialModule&#45;&gt;MatIconModule </title>
<path fill="none" stroke="#000000" stroke-dasharray="5,2" d="M2468.5708,-108C2591.2366,-108 2882,-108 2882,-108 2882,-108 2882,-132.7604 2882,-132.7604"/>
<polygon fill="#000000" stroke="#000000" points="2878.5001,-132.7604 2882,-142.7604 2885.5001,-132.7604 2878.5001,-132.7604"/>
</g>
<!-- MaterialModule&#45;&gt;MatInputModule  -->
<g id="edge14" class="edge">
<title>MaterialModule&#45;&gt;MatInputModule </title>
<path fill="none" stroke="#000000" stroke-dasharray="5,2" d="M2468.6117,-110C2563.4737,-110 2751,-110 2751,-110 2751,-110 2751,-132.8757 2751,-132.8757"/>
<polygon fill="#000000" stroke="#000000" points="2747.5001,-132.8757 2751,-142.8757 2754.5001,-132.8757 2747.5001,-132.8757"/>
</g>
<!-- MaterialModule&#45;&gt;MatListModule  -->
<g id="edge15" class="edge">
<title>MaterialModule&#45;&gt;MatListModule </title>
<path fill="none" stroke="#000000" stroke-dasharray="5,2" d="M2468.5768,-112C2529.9101,-112 2622,-112 2622,-112 2622,-112 2622,-132.7542 2622,-132.7542"/>
<polygon fill="#000000" stroke="#000000" points="2618.5001,-132.7542 2622,-142.7542 2625.5001,-132.7542 2618.5001,-132.7542"/>
</g>
<!-- MaterialModule&#45;&gt;MatMenuModule  -->
<g id="edge16" class="edge">
<title>MaterialModule&#45;&gt;MatMenuModule </title>
<path fill="none" stroke="#000000" stroke-dasharray="5,2" d="M2450.178,-114.1061C2450.178,-114.1061 2450.178,-132.991 2450.178,-132.991"/>
<polygon fill="#000000" stroke="#000000" points="2446.678,-132.9909 2450.178,-142.991 2453.678,-132.991 2446.678,-132.9909"/>
</g>
<!-- MaterialModule&#45;&gt;MatNativeDateModule  -->
<g id="edge17" class="edge">
<title>MaterialModule&#45;&gt;MatNativeDateModule </title>
<path fill="none" stroke="#000000" stroke-dasharray="5,2" d="M2387.5931,-114.1061C2387.5931,-114.1061 2387.5931,-132.991 2387.5931,-132.991"/>
<polygon fill="#000000" stroke="#000000" points="2384.0932,-132.9909 2387.5931,-142.991 2391.0932,-132.991 2384.0932,-132.9909"/>
</g>
<!-- MaterialModule&#45;&gt;MatPaginatorModule  -->
<g id="edge18" class="edge">
<title>MaterialModule&#45;&gt;MatPaginatorModule </title>
<path fill="none" stroke="#000000" stroke-dasharray="5,2" d="M2361.2914,-112C2291.0958,-112 2177,-112 2177,-112 2177,-112 2177,-132.7542 2177,-132.7542"/>
<polygon fill="#000000" stroke="#000000" points="2173.5001,-132.7542 2177,-142.7542 2180.5001,-132.7542 2173.5001,-132.7542"/>
</g>
<!-- MaterialModule&#45;&gt;MatProgressBarModule  -->
<g id="edge19" class="edge">
<title>MaterialModule&#45;&gt;MatProgressBarModule </title>
<path fill="none" stroke="#000000" stroke-dasharray="5,2" d="M2361.4847,-110C2251.8608,-110 2012,-110 2012,-110 2012,-110 2012,-132.8757 2012,-132.8757"/>
<polygon fill="#000000" stroke="#000000" points="2008.5001,-132.8757 2012,-142.8757 2015.5001,-132.8757 2008.5001,-132.8757"/>
</g>
<!-- MaterialModule&#45;&gt;MatProgressSpinnerModule  -->
<g id="edge20" class="edge">
<title>MaterialModule&#45;&gt;MatProgressSpinnerModule </title>
<path fill="none" stroke="#000000" stroke-dasharray="5,2" d="M2361.3515,-108C2216.4438,-108 1828,-108 1828,-108 1828,-108 1828,-132.7604 1828,-132.7604"/>
<polygon fill="#000000" stroke="#000000" points="1824.5001,-132.7604 1828,-142.7604 1831.5001,-132.7604 1824.5001,-132.7604"/>
</g>
<!-- MaterialModule&#45;&gt;MatRadioModule  -->
<g id="edge21" class="edge">
<title>MaterialModule&#45;&gt;MatRadioModule </title>
<path fill="none" stroke="#000000" stroke-dasharray="5,2" d="M2361.4498,-105C2189.4201,-105 1662,-105 1662,-105 1662,-105 1662,-132.973 1662,-132.973"/>
<polygon fill="#000000" stroke="#000000" points="1658.5001,-132.973 1662,-142.973 1665.5001,-132.973 1658.5001,-132.973"/>
</g>
<!-- MaterialModule&#45;&gt;MatRippleModule  -->
<g id="edge22" class="edge">
<title>MaterialModule&#45;&gt;MatRippleModule </title>
<path fill="none" stroke="#000000" stroke-dasharray="5,2" d="M2361.2102,-103C2168.3588,-103 1523,-103 1523,-103 1523,-103 1523,-132.9664 1523,-132.9664"/>
<polygon fill="#000000" stroke="#000000" points="1519.5001,-132.9663 1523,-142.9664 1526.5001,-132.9664 1519.5001,-132.9663"/>
</g>
<!-- MaterialModule&#45;&gt;MatSelectModule  -->
<g id="edge23" class="edge">
<title>MaterialModule&#45;&gt;MatSelectModule </title>
<path fill="none" stroke="#000000" stroke-dasharray="5,2" d="M2361.3808,-101C2149.7521,-101 1384,-101 1384,-101 1384,-101 1384,-132.998 1384,-132.998"/>
<polygon fill="#000000" stroke="#000000" points="1380.5001,-132.998 1384,-142.998 1387.5001,-132.9981 1380.5001,-132.998"/>
</g>
<!-- MaterialModule&#45;&gt;MatSidenavModule  -->
<g id="edge24" class="edge">
<title>MaterialModule&#45;&gt;MatSidenavModule </title>
<path fill="none" stroke="#000000" stroke-dasharray="5,2" d="M2361.505,-99C2131.8363,-99 1241,-99 1241,-99 1241,-99 1241,-132.7333 1241,-132.7333"/>
<polygon fill="#000000" stroke="#000000" points="1237.5001,-132.7333 1241,-142.7333 1244.5001,-132.7333 1237.5001,-132.7333"/>
</g>
<!-- MaterialModule&#45;&gt;MatSliderModule  -->
<g id="edge25" class="edge">
<title>MaterialModule&#45;&gt;MatSliderModule </title>
<path fill="none" stroke="#000000" stroke-dasharray="5,2" d="M2361.3295,-96C2114.2211,-96 1098,-96 1098,-96 1098,-96 1098,-132.8939 1098,-132.8939"/>
<polygon fill="#000000" stroke="#000000" points="1094.5001,-132.8938 1098,-142.8939 1101.5001,-132.8939 1094.5001,-132.8938"/>
</g>
<!-- MaterialModule&#45;&gt;MatSlideToggleModule  -->
<g id="edge26" class="edge">
<title>MaterialModule&#45;&gt;MatSlideToggleModule </title>
<path fill="none" stroke="#000000" stroke-dasharray="5,2" d="M2361.3039,-94C2096.5688,-94 943,-94 943,-94 943,-94 943,-132.692 943,-132.692"/>
<polygon fill="#000000" stroke="#000000" points="939.5001,-132.6919 943,-142.692 946.5001,-132.692 939.5001,-132.6919"/>
</g>
<!-- MaterialModule&#45;&gt;MatSnackBarModule  -->
<g id="edge27" class="edge">
<title>MaterialModule&#45;&gt;MatSnackBarModule </title>
<path fill="none" stroke="#000000" stroke-dasharray="5,2" d="M2361.4648,-92C2079.3386,-92 778,-92 778,-92 778,-92 778,-132.8711 778,-132.8711"/>
<polygon fill="#000000" stroke="#000000" points="774.5001,-132.871 778,-142.8711 781.5001,-132.8711 774.5001,-132.871"/>
</g>
<!-- MaterialModule&#45;&gt;MatSortModule  -->
<g id="edge28" class="edge">
<title>MaterialModule&#45;&gt;MatSortModule </title>
<path fill="none" stroke="#000000" stroke-dasharray="5,2" d="M2361.2734,-90C2064.1972,-90 636,-90 636,-90 636,-90 636,-132.7157 636,-132.7157"/>
<polygon fill="#000000" stroke="#000000" points="632.5001,-132.7157 636,-142.7157 639.5001,-132.7158 632.5001,-132.7157"/>
</g>
<!-- MaterialModule&#45;&gt;MatTableModule  -->
<g id="edge29" class="edge">
<title>MaterialModule&#45;&gt;MatTableModule </title>
<path fill="none" stroke="#000000" stroke-dasharray="5,2" d="M2361.4192,-87C2051.7643,-87 505,-87 505,-87 505,-87 505,-132.7079 505,-132.7079"/>
<polygon fill="#000000" stroke="#000000" points="501.5001,-132.7078 505,-142.7079 508.5001,-132.7079 501.5001,-132.7078"/>
</g>
<!-- MaterialModule&#45;&gt;MatTabsModule  -->
<g id="edge30" class="edge">
<title>MaterialModule&#45;&gt;MatTabsModule </title>
<path fill="none" stroke="#000000" stroke-dasharray="5,2" d="M2361.4048,-85C2039.0626,-85 372,-85 372,-85 372,-85 372,-132.9891 372,-132.9891"/>
<polygon fill="#000000" stroke="#000000" points="368.5001,-132.989 372,-142.9891 375.5001,-132.9891 368.5001,-132.989"/>
</g>
<!-- MaterialModule&#45;&gt;MatToolbarModule  -->
<g id="edge31" class="edge">
<title>MaterialModule&#45;&gt;MatToolbarModule </title>
<path fill="none" stroke="#000000" stroke-dasharray="5,2" d="M2361.3339,-83C2026.0184,-83 233,-83 233,-83 233,-83 233,-132.9092 233,-132.9092"/>
<polygon fill="#000000" stroke="#000000" points="229.5001,-132.9091 233,-142.9092 236.5001,-132.9092 229.5001,-132.9091"/>
</g>
<!-- MaterialModule&#45;&gt;MatTooltipModule  -->
<g id="edge32" class="edge">
<title>MaterialModule&#45;&gt;MatTooltipModule </title>
<path fill="none" stroke="#000000" stroke-dasharray="5,2" d="M2361.4434,-81C2013.4103,-81 87,-81 87,-81 87,-81 87,-132.8468 87,-132.8468"/>
<polygon fill="#000000" stroke="#000000" points="83.5001,-132.8467 87,-142.8468 90.5001,-132.8468 83.5001,-132.8467"/>
</g>
</g>
</svg>
