<?xml version="1.0" encoding="UTF-8" standalone="no"?>
<!DOCTYPE svg PUBLIC "-//W3C//DTD SVG 1.1//EN"
 "http://www.w3.org/Graphics/SVG/1.1/DTD/svg11.dtd">
<!-- Generated by graphviz version 2.40.1 (20161225.0304)
 -->
<!-- Title: dependencies Pages: 1 -->
<svg width="2466pt" height="284pt"
 viewBox="0.00 0.00 2466.00 284.00" xmlns="http://www.w3.org/2000/svg" xmlns:xlink="http://www.w3.org/1999/xlink">
<g id="graph0" class="graph" transform="scale(1 1) rotate(0) translate(4 280)">
<title>dependencies</title>
<polygon fill="#ffffff" stroke="transparent" points="-4,4 -4,-280 2462,-280 2462,4 -4,4"/>
<text text-anchor="start" x="1208.0091" y="-42.4" font-family="sans-serif" font-weight="bold" font-size="14.00" fill="#000000">Legend</text>
<polygon fill="#ffffb3" stroke="transparent" points="995,-10 995,-30 1015,-30 1015,-10 995,-10"/>
<text text-anchor="start" x="1018.629" y="-15.4" font-family="sans-serif" font-size="14.00" fill="#000000"> &#160;Declarations</text>
<polygon fill="#8dd3c7" stroke="transparent" points="1108,-10 1108,-30 1128,-30 1128,-10 1108,-10"/>
<text text-anchor="start" x="1131.7251" y="-15.4" font-family="sans-serif" font-size="14.00" fill="#000000"> &#160;Module</text>
<polygon fill="#80b1d3" stroke="transparent" points="1194,-10 1194,-30 1214,-30 1214,-10 1194,-10"/>
<text text-anchor="start" x="1217.7812" y="-15.4" font-family="sans-serif" font-size="14.00" fill="#000000"> &#160;Bootstrap</text>
<polygon fill="#fdb462" stroke="transparent" points="1291,-10 1291,-30 1311,-30 1311,-10 1291,-10"/>
<text text-anchor="start" x="1314.6732" y="-15.4" font-family="sans-serif" font-size="14.00" fill="#000000"> &#160;Providers</text>
<polygon fill="#fb8072" stroke="transparent" points="1387,-10 1387,-30 1407,-30 1407,-10 1387,-10"/>
<text text-anchor="start" x="1410.7258" y="-15.4" font-family="sans-serif" font-size="14.00" fill="#000000"> &#160;Exports</text>
<g id="clust1" class="cluster">
<title>cluster_AppModule</title>
<polygon fill="none" stroke="#000000" stroke-dasharray="1,5" points="8,-70 8,-268 2450,-268 2450,-70 8,-70"/>
</g>
<g id="clust2" class="cluster">
<title>cluster_AppModule_declarations</title>
<polygon fill="none" stroke="#000000" points="1966,-78 1966,-130 2442,-130 2442,-78 1966,-78"/>
</g>
<g id="clust6" class="cluster">
<title>cluster_AppModule_imports</title>
<polygon fill="none" stroke="#000000" points="1168,-78 1168,-130 1958,-130 1958,-78 1168,-78"/>
</g>
<g id="clust8" class="cluster">
<title>cluster_AppModule_bootstrap</title>
<polygon fill="none" stroke="#000000" points="1641,-208 1641,-260 1765,-260 1765,-208 1641,-208"/>
</g>
<g id="clust9" class="cluster">
<title>cluster_AppModule_providers</title>
<polygon fill="none" stroke="#000000" points="16,-78 16,-130 1160,-130 1160,-78 16,-78"/>
</g>
<!-- AppComponent -->
<g id="node1" class="node">
<title>AppComponent</title>
<polygon fill="#ffffb3" stroke="#000000" points="2433.9399,-122 2328.0601,-122 2328.0601,-86 2433.9399,-86 2433.9399,-122"/>
<text text-anchor="middle" x="2381" y="-99.8" font-family="Times,serif" font-size="14.00" fill="#000000">AppComponent</text>
</g>
<!-- AppModule -->
<g id="node4" class="node">
<title>AppModule</title>
<polygon fill="#8dd3c7" stroke="#000000" points="1744.6571,-187 1741.6571,-191 1720.6571,-191 1717.6571,-187 1661.3429,-187 1661.3429,-151 1744.6571,-151 1744.6571,-187"/>
<text text-anchor="middle" x="1703" y="-164.8" font-family="Times,serif" font-size="14.00" fill="#000000">AppModule</text>
</g>
<!-- AppComponent&#45;&gt;AppModule -->
<g id="edge1" class="edge">
<title>AppComponent&#45;&gt;AppModule</title>
<path fill="none" stroke="#000000" d="M2381,-122.0109C2381,-144.4852 2381,-180 2381,-180 2381,-180 1754.9003,-180 1754.9003,-180"/>
<polygon fill="#000000" stroke="#000000" points="1754.9003,-176.5001 1744.9003,-180 1754.9002,-183.5001 1754.9003,-176.5001"/>
</g>
<!-- SuperHeroComponent -->
<g id="node2" class="node">
<title>SuperHeroComponent</title>
<polygon fill="#ffffb3" stroke="#000000" points="2309.972,-122 2168.028,-122 2168.028,-86 2309.972,-86 2309.972,-122"/>
<text text-anchor="middle" x="2239" y="-99.8" font-family="Times,serif" font-size="14.00" fill="#000000">SuperHeroComponent</text>
</g>
<!-- SuperHeroComponent&#45;&gt;AppModule -->
<g id="edge2" class="edge">
<title>SuperHeroComponent&#45;&gt;AppModule</title>
<path fill="none" stroke="#000000" d="M2239,-122.1289C2239,-142.5724 2239,-173 2239,-173 2239,-173 1755.059,-173 1755.059,-173"/>
<polygon fill="#000000" stroke="#000000" points="1755.0591,-169.5001 1745.059,-173 1755.059,-176.5001 1755.0591,-169.5001"/>
</g>
<!-- SuperHeroDetailComponent -->
<g id="node3" class="node">
<title>SuperHeroDetailComponent</title>
<polygon fill="#ffffb3" stroke="#000000" points="2150.1797,-122 1973.8203,-122 1973.8203,-86 2150.1797,-86 2150.1797,-122"/>
<text text-anchor="middle" x="2062" y="-99.8" font-family="Times,serif" font-size="14.00" fill="#000000">SuperHeroDetailComponent</text>
</g>
<!-- SuperHeroDetailComponent&#45;&gt;AppModule -->
<g id="edge3" class="edge">
<title>SuperHeroDetailComponent&#45;&gt;AppModule</title>
<path fill="none" stroke="#000000" d="M2062,-122.2667C2062,-140.5552 2062,-166 2062,-166 2062,-166 1754.8845,-166 1754.8845,-166"/>
<polygon fill="#000000" stroke="#000000" points="1754.8845,-162.5001 1744.8845,-166 1754.8844,-169.5001 1754.8845,-162.5001"/>
</g>
<!-- AppComponent  -->
<g id="node10" class="node">
<title>AppComponent </title>
<polygon fill="#80b1d3" stroke="#000000" points="1757.439,-252 1648.561,-252 1648.561,-216 1757.439,-216 1757.439,-252"/>
<text text-anchor="middle" x="1703" y="-229.8" font-family="Times,serif" font-size="14.00" fill="#000000">AppComponent </text>
</g>
<!-- AppModule&#45;&gt;AppComponent  -->
<g id="edge9" class="edge">
<title>AppModule&#45;&gt;AppComponent </title>
<path fill="none" stroke="#000000" stroke-dasharray="1,5" d="M1703,-187.1061C1703,-187.1061 1703,-205.991 1703,-205.991"/>
<polygon fill="#000000" stroke="#000000" points="1699.5001,-205.9909 1703,-215.991 1706.5001,-205.991 1699.5001,-205.9909"/>
</g>
<!-- BrowserModule -->
<g id="node5" class="node">
<title>BrowserModule</title>
<polygon fill="#8dd3c7" stroke="#000000" points="1950.4734,-122 1947.4734,-126 1926.4734,-126 1923.4734,-122 1843.5266,-122 1843.5266,-86 1950.4734,-86 1950.4734,-122"/>
<text text-anchor="middle" x="1897" y="-99.8" font-family="Times,serif" font-size="14.00" fill="#000000">BrowserModule</text>
</g>
<!-- BrowserModule&#45;&gt;AppModule -->
<g id="edge4" class="edge">
<title>BrowserModule&#45;&gt;AppModule</title>
<path fill="none" stroke="#000000" d="M1897,-122.0091C1897,-138.0494 1897,-159 1897,-159 1897,-159 1755.0951,-159 1755.0951,-159"/>
<polygon fill="#000000" stroke="#000000" points="1755.0951,-155.5001 1745.0951,-159 1755.0951,-162.5001 1755.0951,-155.5001"/>
</g>
<!-- RouteModule -->
<g id="node6" class="node">
<title>RouteModule</title>
<polygon fill="#8dd3c7" stroke="#000000" points="1825.4916,-122 1822.4916,-126 1801.4916,-126 1798.4916,-122 1732.5084,-122 1732.5084,-86 1825.4916,-86 1825.4916,-122"/>
<text text-anchor="middle" x="1779" y="-99.8" font-family="Times,serif" font-size="14.00" fill="#000000">RouteModule</text>
</g>
<!-- RouteModule&#45;&gt;AppModule -->
<g id="edge5" class="edge">
<title>RouteModule&#45;&gt;AppModule</title>
<path fill="none" stroke="#000000" d="M1738.6662,-122.1061C1738.6662,-122.1061 1738.6662,-140.991 1738.6662,-140.991"/>
<polygon fill="#000000" stroke="#000000" points="1735.1663,-140.9909 1738.6662,-150.991 1742.1663,-140.991 1735.1663,-140.9909"/>
</g>
<!-- BrowserAnimationsModule -->
<g id="node7" class="node">
<title>BrowserAnimationsModule</title>
<polygon fill="#8dd3c7" stroke="#000000" points="1714.3019,-122 1711.3019,-126 1690.3019,-126 1687.3019,-122 1541.6981,-122 1541.6981,-86 1714.3019,-86 1714.3019,-122"/>
<text text-anchor="middle" x="1628" y="-99.8" font-family="Times,serif" font-size="14.00" fill="#000000">BrowserAnimationsModule</text>
</g>
<!-- BrowserAnimationsModule&#45;&gt;AppModule -->
<g id="edge6" class="edge">
<title>BrowserAnimationsModule&#45;&gt;AppModule</title>
<path fill="none" stroke="#000000" d="M1687.6613,-122.1061C1687.6613,-122.1061 1687.6613,-140.991 1687.6613,-140.991"/>
<polygon fill="#000000" stroke="#000000" points="1684.1614,-140.9909 1687.6613,-150.991 1691.1614,-140.991 1684.1614,-140.9909"/>
</g>
<!-- MaterialModule -->
<g id="node8" class="node">
<title>MaterialModule</title>
<polygon fill="#8dd3c7" stroke="#000000" points="1523.4706,-122 1520.4706,-126 1499.4706,-126 1496.4706,-122 1416.5294,-122 1416.5294,-86 1523.4706,-86 1523.4706,-122"/>
<text text-anchor="middle" x="1470" y="-99.8" font-family="Times,serif" font-size="14.00" fill="#000000">MaterialModule</text>
</g>
<!-- MaterialModule&#45;&gt;AppModule -->
<g id="edge7" class="edge">
<title>MaterialModule&#45;&gt;AppModule</title>
<path fill="none" stroke="#000000" d="M1470,-122.0091C1470,-138.0494 1470,-159 1470,-159 1470,-159 1651.0752,-159 1651.0752,-159"/>
<polygon fill="#000000" stroke="#000000" points="1651.0752,-162.5001 1661.0752,-159 1651.0751,-155.5001 1651.0752,-162.5001"/>
</g>
<!-- ServiceWorkerModule.register(args) -->
<g id="node9" class="node">
<title>ServiceWorkerModule.register(args)</title>
<polygon fill="#8dd3c7" stroke="#000000" points="1398.3954,-122 1395.3954,-126 1374.3954,-126 1371.3954,-122 1175.6046,-122 1175.6046,-86 1398.3954,-86 1398.3954,-122"/>
<text text-anchor="middle" x="1287" y="-99.8" font-family="Times,serif" font-size="14.00" fill="#000000">ServiceWorkerModule.register(args)</text>
</g>
<!-- ServiceWorkerModule.register(args)&#45;&gt;AppModule -->
<g id="edge8" class="edge">
<title>ServiceWorkerModule.register(args)&#45;&gt;AppModule</title>
<path fill="none" stroke="#000000" d="M1287,-122.2667C1287,-140.5552 1287,-166 1287,-166 1287,-166 1651.2076,-166 1651.2076,-166"/>
<polygon fill="#000000" stroke="#000000" points="1651.2077,-169.5001 1661.2076,-166 1651.2076,-162.5001 1651.2077,-169.5001"/>
</g>
<!-- { provide: SuperHeroService, useClass: SuperHeroService } -->
<g id="node11" class="node">
<title>{ provide: SuperHeroService, useClass: SuperHeroService }</title>
<ellipse fill="#fdb462" stroke="#000000" cx="907" cy="-104" rx="245.0331" ry="18"/>
<text text-anchor="middle" x="907" y="-99.8" font-family="Times,serif" font-size="14.00" fill="#000000">{ provide: SuperHeroService, useClass: SuperHeroService }</text>
</g>
<!-- { provide: SuperHeroService, useClass: SuperHeroService }&#45;&gt;AppModule -->
<g id="edge10" class="edge">
<title>{ provide: SuperHeroService, useClass: SuperHeroService }&#45;&gt;AppModule</title>
<path fill="none" stroke="#000000" d="M907,-122.1289C907,-142.5724 907,-173 907,-173 907,-173 1651.3243,-173 1651.3243,-173"/>
<polygon fill="#000000" stroke="#000000" points="1651.3244,-176.5001 1661.3243,-173 1651.3243,-169.5001 1651.3244,-176.5001"/>
</g>
<!-- { provide: HAMMER_GESTURE_CONFIG, useClass: MyHammerConfig } -->
<g id="node12" class="node">
<title>{ provide: HAMMER_GESTURE_CONFIG, useClass: MyHammerConfig }</title>
<ellipse fill="#fdb462" stroke="#000000" cx="334" cy="-104" rx="309.9287" ry="18"/>
<text text-anchor="middle" x="334" y="-99.8" font-family="Times,serif" font-size="14.00" fill="#000000">{ provide: HAMMER_GESTURE_CONFIG, useClass: MyHammerConfig }</text>
</g>
<!-- { provide: HAMMER_GESTURE_CONFIG, useClass: MyHammerConfig }&#45;&gt;AppModule -->
<g id="edge11" class="edge">
<title>{ provide: HAMMER_GESTURE_CONFIG, useClass: MyHammerConfig }&#45;&gt;AppModule</title>
<path fill="none" stroke="#000000" d="M334,-122.0109C334,-144.4852 334,-180 334,-180 334,-180 1651.2811,-180 1651.2811,-180"/>
<polygon fill="#000000" stroke="#000000" points="1651.2811,-183.5001 1661.2811,-180 1651.281,-176.5001 1651.2811,-183.5001"/>
</g>
</g>
</svg>
