<?xml version="1.0" encoding="UTF-8" standalone="no"?>
<!DOCTYPE svg PUBLIC "-//W3C//DTD SVG 1.1//EN"
 "http://www.w3.org/Graphics/SVG/1.1/DTD/svg11.dtd">
<!-- Generated by graphviz version 2.40.1 (20161225.0304)
 -->
<!-- Title: dependencies Pages: 1 -->
<svg width="7255pt" height="290pt"
 viewBox="0.00 0.00 7255.00 290.00" xmlns="http://www.w3.org/2000/svg" xmlns:xlink="http://www.w3.org/1999/xlink">
<g id="graph0" class="graph" transform="scale(1 1) rotate(0) translate(4 286)">
<title>dependencies</title>
<polygon fill="#ffffff" stroke="transparent" points="-4,4 -4,-286 7251,-286 7251,4 -4,4"/>
<text text-anchor="start" x="3602.5091" y="-42.4" font-family="sans-serif" font-weight="bold" font-size="14.00" fill="#000000">Legend</text>
<polygon fill="#ffffb3" stroke="transparent" points="3389.5,-10 3389.5,-30 3409.5,-30 3409.5,-10 3389.5,-10"/>
<text text-anchor="start" x="3413.129" y="-15.4" font-family="sans-serif" font-size="14.00" fill="#000000"> &#160;Declarations</text>
<polygon fill="#8dd3c7" stroke="transparent" points="3502.5,-10 3502.5,-30 3522.5,-30 3522.5,-10 3502.5,-10"/>
<text text-anchor="start" x="3526.2251" y="-15.4" font-family="sans-serif" font-size="14.00" fill="#000000"> &#160;Module</text>
<polygon fill="#80b1d3" stroke="transparent" points="3588.5,-10 3588.5,-30 3608.5,-30 3608.5,-10 3588.5,-10"/>
<text text-anchor="start" x="3612.2812" y="-15.4" font-family="sans-serif" font-size="14.00" fill="#000000"> &#160;Bootstrap</text>
<polygon fill="#fdb462" stroke="transparent" points="3685.5,-10 3685.5,-30 3705.5,-30 3705.5,-10 3685.5,-10"/>
<text text-anchor="start" x="3709.1732" y="-15.4" font-family="sans-serif" font-size="14.00" fill="#000000"> &#160;Providers</text>
<polygon fill="#fb8072" stroke="transparent" points="3781.5,-10 3781.5,-30 3801.5,-30 3801.5,-10 3781.5,-10"/>
<text text-anchor="start" x="3805.2258" y="-15.4" font-family="sans-serif" font-size="14.00" fill="#000000"> &#160;Exports</text>
<g id="clust1" class="cluster">
<title>cluster_AppModule</title>
<polygon fill="none" stroke="#000000" stroke-dasharray="1,5" points="8,-70 8,-274 2449,-274 2449,-70 8,-70"/>
</g>
<g id="clust2" class="cluster">
<title>cluster_AppModule_declarations</title>
<polygon fill="none" stroke="#000000" points="1168,-78 1168,-130 1644,-130 1644,-78 1168,-78"/>
</g>
<g id="clust6" class="cluster">
<title>cluster_AppModule_imports</title>
<polygon fill="none" stroke="#000000" points="1652,-78 1652,-130 2441,-130 2441,-78 1652,-78"/>
</g>
<g id="clust8" class="cluster">
<title>cluster_AppModule_bootstrap</title>
<polygon fill="none" stroke="#000000" points="1615,-214 1615,-266 1739,-266 1739,-214 1615,-214"/>
</g>
<g id="clust9" class="cluster">
<title>cluster_AppModule_providers</title>
<polygon fill="none" stroke="#000000" points="16,-78 16,-130 1160,-130 1160,-78 16,-78"/>
</g>
<g id="clust10" class="cluster">
<title>cluster_MaterialModule</title>
<polygon fill="none" stroke="#000000" stroke-dasharray="1,5" points="2457,-138 2457,-206 7239,-206 7239,-138 2457,-138"/>
</g>
<g id="clust13" class="cluster">
<title>cluster_MaterialModule_exports</title>
<polygon fill="none" stroke="#000000" points="2465,-146 2465,-198 7231,-198 7231,-146 2465,-146"/>
</g>
<!-- AppComponent -->
<g id="node1" class="node">
<title>AppComponent</title>
<polygon fill="#ffffb3" stroke="#000000" points="1635.9399,-122 1530.0601,-122 1530.0601,-86 1635.9399,-86 1635.9399,-122"/>
<text text-anchor="middle" x="1583" y="-99.8" font-family="Times,serif" font-size="14.00" fill="#000000">AppComponent</text>
</g>
<!-- AppModule -->
<g id="node4" class="node">
<title>AppModule</title>
<polygon fill="#8dd3c7" stroke="#000000" points="1718.6571,-190 1715.6571,-194 1694.6571,-194 1691.6571,-190 1635.3429,-190 1635.3429,-154 1718.6571,-154 1718.6571,-190"/>
<text text-anchor="middle" x="1677" y="-167.8" font-family="Times,serif" font-size="14.00" fill="#000000">AppModule</text>
</g>
<!-- AppComponent&#45;&gt;AppModule -->
<g id="edge1" class="edge">
<title>AppComponent&#45;&gt;AppModule</title>
<path fill="none" stroke="#000000" d="M1628.8512,-122.1532C1628.8512,-145.7566 1628.8512,-184 1628.8512,-184 1628.8512,-184 1629.4806,-184 1629.4806,-184"/>
<polygon fill="#000000" stroke="#000000" points="1625.1458,-187.5002 1635.1458,-184 1625.1457,-180.5002 1625.1458,-187.5002"/>
</g>
<!-- SuperHeroComponent -->
<g id="node2" class="node">
<title>SuperHeroComponent</title>
<polygon fill="#ffffb3" stroke="#000000" points="1511.972,-122 1370.028,-122 1370.028,-86 1511.972,-86 1511.972,-122"/>
<text text-anchor="middle" x="1441" y="-99.8" font-family="Times,serif" font-size="14.00" fill="#000000">SuperHeroComponent</text>
</g>
<!-- SuperHeroComponent&#45;&gt;AppModule -->
<g id="edge2" class="edge">
<title>SuperHeroComponent&#45;&gt;AppModule</title>
<path fill="none" stroke="#000000" d="M1441,-122.027C1441,-138.3976 1441,-160 1441,-160 1441,-160 1625.0799,-160 1625.0799,-160"/>
<polygon fill="#000000" stroke="#000000" points="1625.0799,-163.5001 1635.0799,-160 1625.0798,-156.5001 1625.0799,-163.5001"/>
</g>
<!-- SuperHeroDetailComponent -->
<g id="node3" class="node">
<title>SuperHeroDetailComponent</title>
<polygon fill="#ffffb3" stroke="#000000" points="1352.1797,-122 1175.8203,-122 1175.8203,-86 1352.1797,-86 1352.1797,-122"/>
<text text-anchor="middle" x="1264" y="-99.8" font-family="Times,serif" font-size="14.00" fill="#000000">SuperHeroDetailComponent</text>
</g>
<!-- SuperHeroDetailComponent&#45;&gt;AppModule -->
<g id="edge3" class="edge">
<title>SuperHeroDetailComponent&#45;&gt;AppModule</title>
<path fill="none" stroke="#000000" d="M1264,-122.2667C1264,-140.5552 1264,-166 1264,-166 1264,-166 1625.1265,-166 1625.1265,-166"/>
<polygon fill="#000000" stroke="#000000" points="1625.1266,-169.5001 1635.1265,-166 1625.1265,-162.5001 1625.1266,-169.5001"/>
</g>
<!-- AppComponent  -->
<g id="node10" class="node">
<title>AppComponent </title>
<polygon fill="#80b1d3" stroke="#000000" points="1731.439,-258 1622.561,-258 1622.561,-222 1731.439,-222 1731.439,-258"/>
<text text-anchor="middle" x="1677" y="-235.8" font-family="Times,serif" font-size="14.00" fill="#000000">AppComponent </text>
</g>
<!-- AppModule&#45;&gt;AppComponent  -->
<g id="edge9" class="edge">
<title>AppModule&#45;&gt;AppComponent </title>
<path fill="none" stroke="#000000" stroke-dasharray="1,5" d="M1677,-190.2228C1677,-190.2228 1677,-211.7269 1677,-211.7269"/>
<polygon fill="#000000" stroke="#000000" points="1673.5001,-211.7269 1677,-221.7269 1680.5001,-211.727 1673.5001,-211.7269"/>
</g>
<!-- BrowserModule -->
<g id="node5" class="node">
<title>BrowserModule</title>
<polygon fill="#8dd3c7" stroke="#000000" points="2308.4734,-122 2305.4734,-126 2284.4734,-126 2281.4734,-122 2201.5266,-122 2201.5266,-86 2308.4734,-86 2308.4734,-122"/>
<text text-anchor="middle" x="2255" y="-99.8" font-family="Times,serif" font-size="14.00" fill="#000000">BrowserModule</text>
</g>
<!-- BrowserModule&#45;&gt;AppModule -->
<g id="edge4" class="edge">
<title>BrowserModule&#45;&gt;AppModule</title>
<path fill="none" stroke="#000000" d="M2255,-122.2228C2255,-142.3652 2255,-172 2255,-172 2255,-172 1729.0339,-172 1729.0339,-172"/>
<polygon fill="#000000" stroke="#000000" points="1729.034,-168.5001 1719.0339,-172 1729.0339,-175.5001 1729.034,-168.5001"/>
</g>
<!-- RouteModule -->
<g id="node6" class="node">
<title>RouteModule</title>
<polygon fill="#8dd3c7" stroke="#000000" points="2183.4916,-122 2180.4916,-126 2159.4916,-126 2156.4916,-122 2090.5084,-122 2090.5084,-86 2183.4916,-86 2183.4916,-122"/>
<text text-anchor="middle" x="2137" y="-99.8" font-family="Times,serif" font-size="14.00" fill="#000000">RouteModule</text>
</g>
<!-- RouteModule&#45;&gt;AppModule -->
<g id="edge5" class="edge">
<title>RouteModule&#45;&gt;AppModule</title>
<path fill="none" stroke="#000000" d="M2137,-122.2667C2137,-140.5552 2137,-166 2137,-166 2137,-166 1729.0414,-166 1729.0414,-166"/>
<polygon fill="#000000" stroke="#000000" points="1729.0414,-162.5001 1719.0414,-166 1729.0413,-169.5001 1729.0414,-162.5001"/>
</g>
<!-- BrowserAnimationsModule -->
<g id="node7" class="node">
<title>BrowserAnimationsModule</title>
<polygon fill="#8dd3c7" stroke="#000000" points="2072.3019,-122 2069.3019,-126 2048.3019,-126 2045.3019,-122 1899.6981,-122 1899.6981,-86 2072.3019,-86 2072.3019,-122"/>
<text text-anchor="middle" x="1986" y="-99.8" font-family="Times,serif" font-size="14.00" fill="#000000">BrowserAnimationsModule</text>
</g>
<!-- BrowserAnimationsModule&#45;&gt;AppModule -->
<g id="edge6" class="edge">
<title>BrowserAnimationsModule&#45;&gt;AppModule</title>
<path fill="none" stroke="#000000" d="M1986,-122.027C1986,-138.3976 1986,-160 1986,-160 1986,-160 1728.6731,-160 1728.6731,-160"/>
<polygon fill="#000000" stroke="#000000" points="1728.6731,-156.5001 1718.6731,-160 1728.6731,-163.5001 1728.6731,-156.5001"/>
</g>
<!-- MaterialModule -->
<g id="node8" class="node">
<title>MaterialModule</title>
<polygon fill="#8dd3c7" stroke="#000000" points="2433.4706,-122 2430.4706,-126 2409.4706,-126 2406.4706,-122 2326.5294,-122 2326.5294,-86 2433.4706,-86 2433.4706,-122"/>
<text text-anchor="middle" x="2380" y="-99.8" font-family="Times,serif" font-size="14.00" fill="#000000">MaterialModule</text>
</g>
<!-- MaterialModule&#45;&gt;AppModule -->
<g id="edge7" class="edge">
<title>MaterialModule&#45;&gt;AppModule</title>
<path fill="none" stroke="#000000" d="M2332.8071,-122.2921C2332.8071,-144.2057 2332.8071,-178 2332.8071,-178 2332.8071,-178 1728.7709,-178 1728.7709,-178"/>
<polygon fill="#000000" stroke="#000000" points="1728.771,-174.5001 1718.7709,-178 1728.7709,-181.5001 1728.771,-174.5001"/>
</g>
<!-- CdkTableModule  -->
<g id="node13" class="node">
<title>CdkTableModule </title>
<polygon fill="#fb8072" stroke="#000000" points="7223.2591,-190 7104.7409,-190 7104.7409,-154 7223.2591,-154 7223.2591,-190"/>
<text text-anchor="middle" x="7164" y="-167.8" font-family="Times,serif" font-size="14.00" fill="#000000">CdkTableModule </text>
</g>
<!-- MaterialModule&#45;&gt;CdkTableModule  -->
<g id="edge12" class="edge">
<title>MaterialModule&#45;&gt;CdkTableModule </title>
<path fill="none" stroke="#000000" stroke-dasharray="5,2" d="M2339.0995,-122.2356C2339.0995,-151.5744 2339.0995,-206 2339.0995,-206 2339.0995,-206 7164,-206 7164,-206 7164,-206 7164,-200.1944 7164,-200.1944"/>
<polygon fill="#000000" stroke="#000000" points="7167.5001,-200.1944 7164,-190.1944 7160.5001,-200.1945 7167.5001,-200.1944"/>
</g>
<!-- MatAutocompleteModule  -->
<g id="node14" class="node">
<title>MatAutocompleteModule </title>
<polygon fill="#fb8072" stroke="#000000" points="7086.4124,-190 6921.5876,-190 6921.5876,-154 7086.4124,-154 7086.4124,-190"/>
<text text-anchor="middle" x="7004" y="-167.8" font-family="Times,serif" font-size="14.00" fill="#000000">MatAutocompleteModule </text>
</g>
<!-- MaterialModule&#45;&gt;MatAutocompleteModule  -->
<g id="edge13" class="edge">
<title>MaterialModule&#45;&gt;MatAutocompleteModule </title>
<path fill="none" stroke="#000000" stroke-dasharray="5,2" d="M2420.9005,-122.08C2420.9005,-123.8464 2420.9005,-125 2420.9005,-125 2420.9005,-125 7004,-125 7004,-125 7004,-125 7004,-143.963 7004,-143.963"/>
<polygon fill="#000000" stroke="#000000" points="7000.5001,-143.963 7004,-153.963 7007.5001,-143.963 7000.5001,-143.963"/>
</g>
<!-- MatButtonModule  -->
<g id="node15" class="node">
<title>MatButtonModule </title>
<polygon fill="#fb8072" stroke="#000000" points="6903.7177,-190 6780.2823,-190 6780.2823,-154 6903.7177,-154 6903.7177,-190"/>
<text text-anchor="middle" x="6842" y="-167.8" font-family="Times,serif" font-size="14.00" fill="#000000">MatButtonModule </text>
</g>
<!-- MaterialModule&#45;&gt;MatButtonModule  -->
<g id="edge14" class="edge">
<title>MaterialModule&#45;&gt;MatButtonModule </title>
<path fill="none" stroke="#000000" stroke-dasharray="5,2" d="M2414.6081,-122.1223C2414.6081,-124.9729 2414.6081,-127 2414.6081,-127 2414.6081,-127 6842,-127 6842,-127 6842,-127 6842,-143.9561 6842,-143.9561"/>
<polygon fill="#000000" stroke="#000000" points="6838.5001,-143.956 6842,-153.9561 6845.5001,-143.9561 6838.5001,-143.956"/>
</g>
<!-- MatButtonToggleModule  -->
<g id="node16" class="node">
<title>MatButtonToggleModule </title>
<polygon fill="#fb8072" stroke="#000000" points="6761.8756,-190 6598.1244,-190 6598.1244,-154 6761.8756,-154 6761.8756,-190"/>
<text text-anchor="middle" x="6680" y="-167.8" font-family="Times,serif" font-size="14.00" fill="#000000">MatButtonToggleModule </text>
</g>
<!-- MaterialModule&#45;&gt;MatButtonToggleModule  -->
<g id="edge15" class="edge">
<title>MaterialModule&#45;&gt;MatButtonToggleModule </title>
<path fill="none" stroke="#000000" stroke-dasharray="5,2" d="M2408.3157,-122.1686C2408.3157,-126.0459 2408.3157,-129 2408.3157,-129 2408.3157,-129 6680,-129 6680,-129 6680,-129 6680,-143.5146 6680,-143.5146"/>
<polygon fill="#000000" stroke="#000000" points="6676.5001,-143.5145 6680,-153.5146 6683.5001,-143.5146 6676.5001,-143.5145"/>
</g>
<!-- MatCardModule  -->
<g id="node17" class="node">
<title>MatCardModule </title>
<polygon fill="#fb8072" stroke="#000000" points="6580.3116,-190 6467.6884,-190 6467.6884,-154 6580.3116,-154 6580.3116,-190"/>
<text text-anchor="middle" x="6524" y="-167.8" font-family="Times,serif" font-size="14.00" fill="#000000">MatCardModule </text>
</g>
<!-- MaterialModule&#45;&gt;MatCardModule  -->
<g id="edge16" class="edge">
<title>MaterialModule&#45;&gt;MatCardModule </title>
<path fill="none" stroke="#000000" stroke-dasharray="5,2" d="M2402.0234,-122.207C2402.0234,-127.5549 2402.0234,-132 2402.0234,-132 2402.0234,-132 6524,-132 6524,-132 6524,-132 6524,-143.8726 6524,-143.8726"/>
<polygon fill="#000000" stroke="#000000" points="6520.5001,-143.8725 6524,-153.8726 6527.5001,-143.8726 6520.5001,-143.8725"/>
</g>
<!-- MatCheckboxModule  -->
<g id="node18" class="node">
<title>MatCheckboxModule </title>
<polygon fill="#fb8072" stroke="#000000" points="6449.3659,-190 6306.6341,-190 6306.6341,-154 6449.3659,-154 6449.3659,-190"/>
<text text-anchor="middle" x="6378" y="-167.8" font-family="Times,serif" font-size="14.00" fill="#000000">MatCheckboxModule </text>
</g>
<!-- MaterialModule&#45;&gt;MatCheckboxModule  -->
<g id="edge17" class="edge">
<title>MaterialModule&#45;&gt;MatCheckboxModule </title>
<path fill="none" stroke="#000000" stroke-dasharray="5,2" d="M2395.731,-122.1432C2395.731,-128.4611 2395.731,-134 2395.731,-134 2395.731,-134 6378,-134 6378,-134 6378,-134 6378,-143.8903 6378,-143.8903"/>
<polygon fill="#000000" stroke="#000000" points="6374.5001,-143.8903 6378,-153.8903 6381.5001,-143.8904 6374.5001,-143.8903"/>
</g>
<!-- MatChipsModule  -->
<g id="node19" class="node">
<title>MatChipsModule </title>
<polygon fill="#fb8072" stroke="#000000" points="6289.2717,-190 6170.7283,-190 6170.7283,-154 6289.2717,-154 6289.2717,-190"/>
<text text-anchor="middle" x="6230" y="-167.8" font-family="Times,serif" font-size="14.00" fill="#000000">MatChipsModule </text>
</g>
<!-- MaterialModule&#45;&gt;MatChipsModule  -->
<g id="edge18" class="edge">
<title>MaterialModule&#45;&gt;MatChipsModule </title>
<path fill="none" stroke="#000000" stroke-dasharray="5,2" d="M2389.4386,-122.2434C2389.4386,-129.4297 2389.4386,-136 2389.4386,-136 2389.4386,-136 6230,-136 6230,-136 6230,-136 6230,-143.5782 6230,-143.5782"/>
<polygon fill="#000000" stroke="#000000" points="6226.5001,-143.5781 6230,-153.5782 6233.5001,-143.5782 6226.5001,-143.5781"/>
</g>
<!-- MatStepperModule  -->
<g id="node20" class="node">
<title>MatStepperModule </title>
<polygon fill="#fb8072" stroke="#000000" points="6153.3631,-190 6024.6369,-190 6024.6369,-154 6153.3631,-154 6153.3631,-190"/>
<text text-anchor="middle" x="6089" y="-167.8" font-family="Times,serif" font-size="14.00" fill="#000000">MatStepperModule </text>
</g>
<!-- MaterialModule&#45;&gt;MatStepperModule  -->
<g id="edge19" class="edge">
<title>MaterialModule&#45;&gt;MatStepperModule </title>
<path fill="none" stroke="#000000" stroke-dasharray="5,2" d="M2383.1462,-122.1944C2383.1462,-130.2782 2383.1462,-138 2383.1462,-138 2383.1462,-138 6089,-138 6089,-138 6089,-138 6089,-143.8056 6089,-143.8056"/>
<polygon fill="#000000" stroke="#000000" points="6085.5001,-143.8055 6089,-153.8056 6092.5001,-143.8056 6085.5001,-143.8055"/>
</g>
<!-- MatDatepickerModule  -->
<g id="node21" class="node">
<title>MatDatepickerModule </title>
<polygon fill="#fb8072" stroke="#000000" points="6006.5064,-190 5859.4936,-190 5859.4936,-154 6006.5064,-154 6006.5064,-190"/>
<text text-anchor="middle" x="5933" y="-167.8" font-family="Times,serif" font-size="14.00" fill="#000000">MatDatepickerModule </text>
</g>
<!-- MaterialModule&#45;&gt;MatDatepickerModule  -->
<g id="edge20" class="edge">
<title>MaterialModule&#45;&gt;MatDatepickerModule </title>
<path fill="none" stroke="#000000" stroke-dasharray="5,2" d="M2376.8538,-122.0664C2376.8538,-131.4587 2376.8538,-141 2376.8538,-141 2376.8538,-141 5933,-141 5933,-141 5933,-141 5933,-143.9672 5933,-143.9672"/>
<polygon fill="#000000" stroke="#000000" points="5929.5001,-143.9671 5933,-153.9672 5936.5001,-143.9672 5929.5001,-143.9671"/>
</g>
<!-- MatDialogModule  -->
<g id="node22" class="node">
<title>MatDialogModule </title>
<polygon fill="#fb8072" stroke="#000000" points="5841.7024,-190 5718.2976,-190 5718.2976,-154 5841.7024,-154 5841.7024,-190"/>
<text text-anchor="middle" x="5780" y="-167.8" font-family="Times,serif" font-size="14.00" fill="#000000">MatDialogModule </text>
</g>
<!-- MaterialModule&#45;&gt;MatDialogModule  -->
<g id="edge21" class="edge">
<title>MaterialModule&#45;&gt;MatDialogModule </title>
<path fill="none" stroke="#000000" stroke-dasharray="5,2" d="M2370.5614,-122.1299C2370.5614,-132.3145 2370.5614,-143 2370.5614,-143 2370.5614,-143 5780,-143 5780,-143 5780,-143 5780,-144.0799 5780,-144.0799"/>
<polygon fill="#000000" stroke="#000000" points="5776.5001,-143.7985 5780,-153.7985 5783.5001,-143.7986 5776.5001,-143.7985"/>
</g>
<!-- MatExpansionModule  -->
<g id="node23" class="node">
<title>MatExpansionModule </title>
<polygon fill="#fb8072" stroke="#000000" points="5700.2023,-190 5555.7977,-190 5555.7977,-154 5700.2023,-154 5700.2023,-190"/>
<text text-anchor="middle" x="5628" y="-167.8" font-family="Times,serif" font-size="14.00" fill="#000000">MatExpansionModule </text>
</g>
<!-- MaterialModule&#45;&gt;MatExpansionModule  -->
<g id="edge22" class="edge">
<title>MaterialModule&#45;&gt;MatExpansionModule </title>
<path fill="none" stroke="#000000" stroke-dasharray="5,2" d="M2364.269,-122.1025C2364.269,-133.0859 2364.269,-145 2364.269,-145 2364.269,-145 5628,-145 5628,-145 5628,-145 5628,-145.8841 5628,-145.8841"/>
<polygon fill="#000000" stroke="#000000" points="5624.5001,-143.8408 5628,-153.8408 5631.5001,-143.8409 5624.5001,-143.8408"/>
</g>
<!-- MatGridListModule  -->
<g id="node24" class="node">
<title>MatGridListModule </title>
<polygon fill="#fb8072" stroke="#000000" points="5537.5358,-190 5404.4642,-190 5404.4642,-154 5537.5358,-154 5537.5358,-190"/>
<text text-anchor="middle" x="5471" y="-167.8" font-family="Times,serif" font-size="14.00" fill="#000000">MatGridListModule </text>
</g>
<!-- MaterialModule&#45;&gt;MatGridListModule  -->
<g id="edge23" class="edge">
<title>MaterialModule&#45;&gt;MatGridListModule </title>
<path fill="none" stroke="#000000" stroke-dasharray="5,2" d="M2357.9766,-122.1505C2357.9766,-134.2708 2357.9766,-148 2357.9766,-148 2357.9766,-148 5471,-148 5471,-148 5471,-148 5471,-148.581 5471,-148.581"/>
<polygon fill="#000000" stroke="#000000" points="5467.5002,-143.8097 5471,-153.8097 5474.5002,-143.8098 5467.5002,-143.8097"/>
</g>
<!-- MatIconModule  -->
<g id="node25" class="node">
<title>MatIconModule </title>
<polygon fill="#fb8072" stroke="#000000" points="5386.4758,-190 5275.5242,-190 5275.5242,-154 5386.4758,-154 5386.4758,-190"/>
<text text-anchor="middle" x="5331" y="-167.8" font-family="Times,serif" font-size="14.00" fill="#000000">MatIconModule </text>
</g>
<!-- MaterialModule&#45;&gt;MatIconModule  -->
<g id="edge24" class="edge">
<title>MaterialModule&#45;&gt;MatIconModule </title>
<path fill="none" stroke="#000000" stroke-dasharray="5,2" d="M2351.6843,-122.1804C2351.6843,-135.0382 2351.6843,-150 2351.6843,-150 2351.6843,-150 5331,-150 5331,-150 5331,-150 5331,-150.3832 5331,-150.3832"/>
<polygon fill="#000000" stroke="#000000" points="5327.5003,-143.832 5331,-153.8321 5334.5003,-143.8322 5327.5003,-143.832"/>
</g>
<!-- MatInputModule  -->
<g id="node26" class="node">
<title>MatInputModule </title>
<polygon fill="#fb8072" stroke="#000000" points="5257.6509,-190 5142.3491,-190 5142.3491,-154 5257.6509,-154 5257.6509,-190"/>
<text text-anchor="middle" x="5200" y="-167.8" font-family="Times,serif" font-size="14.00" fill="#000000">MatInputModule </text>
</g>
<!-- MaterialModule&#45;&gt;MatInputModule  -->
<g id="edge25" class="edge">
<title>MaterialModule&#45;&gt;MatInputModule </title>
<path fill="none" stroke="#000000" stroke-dasharray="5,2" d="M2345.3919,-122.1467C2345.3919,-135.7395 2345.3919,-152 2345.3919,-152 2345.3919,-152 5200,-152 5200,-152 5200,-152 5200,-152.1846 5200,-152.1846"/>
<polygon fill="#000000" stroke="#000000" points="5196.5006,-143.8455 5200,-153.8457 5203.5006,-143.8459 5196.5006,-143.8455"/>
</g>
<!-- MatListModule  -->
<g id="node27" class="node">
<title>MatListModule </title>
<polygon fill="#fb8072" stroke="#000000" points="5124.8787,-190 5017.1213,-190 5017.1213,-154 5124.8787,-154 5124.8787,-190"/>
<text text-anchor="middle" x="5071" y="-167.8" font-family="Times,serif" font-size="14.00" fill="#000000">MatListModule </text>
</g>
<!-- MaterialModule&#45;&gt;MatListModule  -->
<g id="edge26" class="edge">
<title>MaterialModule&#45;&gt;MatListModule </title>
<path fill="none" stroke="#000000" stroke-dasharray="5,2" d="M2433.7537,-88C2813.0233,-88 5071,-88 5071,-88 5071,-88 5071,-143.7733 5071,-143.7733"/>
<polygon fill="#000000" stroke="#000000" points="5067.5001,-143.7732 5071,-153.7733 5074.5001,-143.7733 5067.5001,-143.7732"/>
</g>
<!-- MatMenuModule  -->
<g id="node28" class="node">
<title>MatMenuModule </title>
<polygon fill="#fb8072" stroke="#000000" points="4999.2591,-190 4880.7409,-190 4880.7409,-154 4999.2591,-154 4999.2591,-190"/>
<text text-anchor="middle" x="4940" y="-167.8" font-family="Times,serif" font-size="14.00" fill="#000000">MatMenuModule </text>
</g>
<!-- MaterialModule&#45;&gt;MatMenuModule  -->
<g id="edge27" class="edge">
<title>MaterialModule&#45;&gt;MatMenuModule </title>
<path fill="none" stroke="#000000" stroke-dasharray="5,2" d="M2433.7642,-90C2802.2362,-90 4940,-90 4940,-90 4940,-90 4940,-143.8015 4940,-143.8015"/>
<polygon fill="#000000" stroke="#000000" points="4936.5001,-143.8015 4940,-153.8015 4943.5001,-143.8016 4936.5001,-143.8015"/>
</g>
<!-- MatNativeDateModule  -->
<g id="node29" class="node">
<title>MatNativeDateModule </title>
<polygon fill="#fb8072" stroke="#000000" points="4862.8434,-190 4713.1566,-190 4713.1566,-154 4862.8434,-154 4862.8434,-190"/>
<text text-anchor="middle" x="4788" y="-167.8" font-family="Times,serif" font-size="14.00" fill="#000000">MatNativeDateModule </text>
</g>
<!-- MaterialModule&#45;&gt;MatNativeDateModule  -->
<g id="edge28" class="edge">
<title>MaterialModule&#45;&gt;MatNativeDateModule </title>
<path fill="none" stroke="#000000" stroke-dasharray="5,2" d="M2433.6707,-92C2788.9675,-92 4788,-92 4788,-92 4788,-92 4788,-143.8468 4788,-143.8468"/>
<polygon fill="#000000" stroke="#000000" points="4784.5001,-143.8467 4788,-153.8468 4791.5001,-143.8468 4784.5001,-143.8467"/>
</g>
<!-- MatPaginatorModule  -->
<g id="node30" class="node">
<title>MatPaginatorModule </title>
<polygon fill="#fb8072" stroke="#000000" points="4695.7534,-190 4556.2466,-190 4556.2466,-154 4695.7534,-154 4695.7534,-190"/>
<text text-anchor="middle" x="4626" y="-167.8" font-family="Times,serif" font-size="14.00" fill="#000000">MatPaginatorModule </text>
</g>
<!-- MaterialModule&#45;&gt;MatPaginatorModule  -->
<g id="edge29" class="edge">
<title>MaterialModule&#45;&gt;MatPaginatorModule </title>
<path fill="none" stroke="#000000" stroke-dasharray="5,2" d="M2433.5787,-94C2774.4211,-94 4626,-94 4626,-94 4626,-94 4626,-143.9092 4626,-143.9092"/>
<polygon fill="#000000" stroke="#000000" points="4622.5001,-143.9091 4626,-153.9092 4629.5001,-143.9092 4622.5001,-143.9091"/>
</g>
<!-- MatProgressBarModule  -->
<g id="node31" class="node">
<title>MatProgressBarModule </title>
<polygon fill="#fb8072" stroke="#000000" points="4538.019,-190 4383.981,-190 4383.981,-154 4538.019,-154 4538.019,-190"/>
<text text-anchor="middle" x="4461" y="-167.8" font-family="Times,serif" font-size="14.00" fill="#000000">MatProgressBarModule </text>
</g>
<!-- MaterialModule&#45;&gt;MatProgressBarModule  -->
<g id="edge30" class="edge">
<title>MaterialModule&#45;&gt;MatProgressBarModule </title>
<path fill="none" stroke="#000000" stroke-dasharray="5,2" d="M2433.532,-96C2759.2563,-96 4461,-96 4461,-96 4461,-96 4461,-143.9891 4461,-143.9891"/>
<polygon fill="#000000" stroke="#000000" points="4457.5001,-143.989 4461,-153.9891 4464.5001,-143.9891 4457.5001,-143.989"/>
</g>
<!-- MatProgressSpinnerModule  -->
<g id="node32" class="node">
<title>MatProgressSpinnerModule </title>
<polygon fill="#fb8072" stroke="#000000" points="4365.856,-190 4188.144,-190 4188.144,-154 4365.856,-154 4365.856,-190"/>
<text text-anchor="middle" x="4277" y="-167.8" font-family="Times,serif" font-size="14.00" fill="#000000">MatProgressSpinnerModule </text>
</g>
<!-- MaterialModule&#45;&gt;MatProgressSpinnerModule  -->
<g id="edge31" class="edge">
<title>MaterialModule&#45;&gt;MatProgressSpinnerModule </title>
<path fill="none" stroke="#000000" stroke-dasharray="5,2" d="M2433.7178,-98C2742.4301,-98 4277,-98 4277,-98 4277,-98 4277,-143.7079 4277,-143.7079"/>
<polygon fill="#000000" stroke="#000000" points="4273.5001,-143.7078 4277,-153.7079 4280.5001,-143.7079 4273.5001,-143.7078"/>
</g>
<!-- MatRadioModule  -->
<g id="node33" class="node">
<title>MatRadioModule </title>
<polygon fill="#fb8072" stroke="#000000" points="4170.5414,-190 4051.4586,-190 4051.4586,-154 4170.5414,-154 4170.5414,-190"/>
<text text-anchor="middle" x="4111" y="-167.8" font-family="Times,serif" font-size="14.00" fill="#000000">MatRadioModule </text>
</g>
<!-- MaterialModule&#45;&gt;MatRadioModule  -->
<g id="edge32" class="edge">
<title>MaterialModule&#45;&gt;MatRadioModule </title>
<path fill="none" stroke="#000000" stroke-dasharray="5,2" d="M2433.7035,-100C2725.8778,-100 4111,-100 4111,-100 4111,-100 4111,-143.8314 4111,-143.8314"/>
<polygon fill="#000000" stroke="#000000" points="4107.5001,-143.8313 4111,-153.8314 4114.5001,-143.8314 4107.5001,-143.8313"/>
</g>
<!-- MatRippleModule  -->
<g id="node34" class="node">
<title>MatRippleModule </title>
<polygon fill="#fb8072" stroke="#000000" points="4033.432,-190 3910.568,-190 3910.568,-154 4033.432,-154 4033.432,-190"/>
<text text-anchor="middle" x="3972" y="-167.8" font-family="Times,serif" font-size="14.00" fill="#000000">MatRippleModule </text>
</g>
<!-- MaterialModule&#45;&gt;MatRippleModule  -->
<g id="edge33" class="edge">
<title>MaterialModule&#45;&gt;MatRippleModule </title>
<path fill="none" stroke="#000000" stroke-dasharray="5,2" d="M2433.8809,-102C2711.9728,-102 3972,-102 3972,-102 3972,-102 3972,-143.9733 3972,-143.9733"/>
<polygon fill="#000000" stroke="#000000" points="3968.5001,-143.9732 3972,-153.9733 3975.5001,-143.9733 3968.5001,-143.9732"/>
</g>
<!-- MatSelectModule  -->
<g id="node35" class="node">
<title>MatSelectModule </title>
<polygon fill="#fb8072" stroke="#000000" points="3892.8074,-190 3773.1926,-190 3773.1926,-154 3892.8074,-154 3892.8074,-190"/>
<text text-anchor="middle" x="3833" y="-167.8" font-family="Times,serif" font-size="14.00" fill="#000000">MatSelectModule </text>
</g>
<!-- MaterialModule&#45;&gt;MatSelectModule  -->
<g id="edge34" class="edge">
<title>MaterialModule&#45;&gt;MatSelectModule </title>
<path fill="none" stroke="#000000" stroke-dasharray="5,2" d="M2433.8711,-104C2696.8319,-104 3833,-104 3833,-104 3833,-104 3833,-143.7772 3833,-143.7772"/>
<polygon fill="#000000" stroke="#000000" points="3829.5001,-143.7772 3833,-153.7772 3836.5001,-143.7773 3829.5001,-143.7772"/>
</g>
<!-- MatSidenavModule  -->
<g id="node36" class="node">
<title>MatSidenavModule </title>
<polygon fill="#fb8072" stroke="#000000" points="3755.2023,-190 3624.7977,-190 3624.7977,-154 3755.2023,-154 3755.2023,-190"/>
<text text-anchor="middle" x="3690" y="-167.8" font-family="Times,serif" font-size="14.00" fill="#000000">MatSidenavModule </text>
</g>
<!-- MaterialModule&#45;&gt;MatSidenavModule  -->
<g id="edge35" class="edge">
<title>MaterialModule&#45;&gt;MatSidenavModule </title>
<path fill="none" stroke="#000000" stroke-dasharray="5,2" d="M2433.7958,-106C2680.3037,-106 3690,-106 3690,-106 3690,-106 3690,-143.9652 3690,-143.9652"/>
<polygon fill="#000000" stroke="#000000" points="3686.5001,-143.9652 3690,-153.9652 3693.5001,-143.9652 3686.5001,-143.9652"/>
</g>
<!-- MatSliderModule  -->
<g id="node37" class="node">
<title>MatSliderModule </title>
<polygon fill="#fb8072" stroke="#000000" points="3606.5386,-190 3487.4614,-190 3487.4614,-154 3606.5386,-154 3606.5386,-190"/>
<text text-anchor="middle" x="3547" y="-167.8" font-family="Times,serif" font-size="14.00" fill="#000000">MatSliderModule </text>
</g>
<!-- MaterialModule&#45;&gt;MatSliderModule  -->
<g id="edge36" class="edge">
<title>MaterialModule&#45;&gt;MatSliderModule </title>
<path fill="none" stroke="#000000" stroke-dasharray="5,2" d="M2433.5606,-108C2662.4678,-108 3547,-108 3547,-108 3547,-108 3547,-143.8314 3547,-143.8314"/>
<polygon fill="#000000" stroke="#000000" points="3543.5001,-143.8313 3547,-153.8314 3550.5001,-143.8314 3543.5001,-143.8313"/>
</g>
<!-- MatSlideToggleModule  -->
<g id="node38" class="node">
<title>MatSlideToggleModule </title>
<polygon fill="#fb8072" stroke="#000000" points="3469.0358,-190 3314.9642,-190 3314.9642,-154 3469.0358,-154 3469.0358,-190"/>
<text text-anchor="middle" x="3392" y="-167.8" font-family="Times,serif" font-size="14.00" fill="#000000">MatSlideToggleModule </text>
</g>
<!-- MaterialModule&#45;&gt;MatSlideToggleModule  -->
<g id="edge37" class="edge">
<title>MaterialModule&#45;&gt;MatSlideToggleModule </title>
<path fill="none" stroke="#000000" stroke-dasharray="5,2" d="M2433.695,-110C2642.9127,-110 3392,-110 3392,-110 3392,-110 3392,-143.7333 3392,-143.7333"/>
<polygon fill="#000000" stroke="#000000" points="3388.5001,-143.7333 3392,-153.7333 3395.5001,-143.7333 3388.5001,-143.7333"/>
</g>
<!-- MatSnackBarModule  -->
<g id="node39" class="node">
<title>MatSnackBarModule </title>
<polygon fill="#fb8072" stroke="#000000" points="3297.0232,-190 3156.9768,-190 3156.9768,-154 3297.0232,-154 3297.0232,-190"/>
<text text-anchor="middle" x="3227" y="-167.8" font-family="Times,serif" font-size="14.00" fill="#000000">MatSnackBarModule </text>
</g>
<!-- MaterialModule&#45;&gt;MatSnackBarModule  -->
<g id="edge38" class="edge">
<title>MaterialModule&#45;&gt;MatSnackBarModule </title>
<path fill="none" stroke="#000000" stroke-dasharray="5,2" d="M2433.6262,-112C2619.8141,-112 3227,-112 3227,-112 3227,-112 3227,-143.998 3227,-143.998"/>
<polygon fill="#000000" stroke="#000000" points="3223.5001,-143.998 3227,-153.998 3230.5001,-143.9981 3223.5001,-143.998"/>
</g>
<!-- MatSortModule  -->
<g id="node40" class="node">
<title>MatSortModule </title>
<polygon fill="#fb8072" stroke="#000000" points="3139.4334,-190 3030.5666,-190 3030.5666,-154 3139.4334,-154 3139.4334,-190"/>
<text text-anchor="middle" x="3085" y="-167.8" font-family="Times,serif" font-size="14.00" fill="#000000">MatSortModule </text>
</g>
<!-- MaterialModule&#45;&gt;MatSortModule  -->
<g id="edge39" class="edge">
<title>MaterialModule&#45;&gt;MatSortModule </title>
<path fill="none" stroke="#000000" stroke-dasharray="5,2" d="M2433.5682,-114C2598.0904,-114 3085,-114 3085,-114 3085,-114 3085,-143.9664 3085,-143.9664"/>
<polygon fill="#000000" stroke="#000000" points="3081.5001,-143.9663 3085,-153.9664 3088.5001,-143.9664 3081.5001,-143.9663"/>
</g>
<!-- MatTableModule  -->
<g id="node41" class="node">
<title>MatTableModule </title>
<polygon fill="#fb8072" stroke="#000000" points="3012.973,-190 2895.027,-190 2895.027,-154 3012.973,-154 3012.973,-190"/>
<text text-anchor="middle" x="2954" y="-167.8" font-family="Times,serif" font-size="14.00" fill="#000000">MatTableModule </text>
</g>
<!-- MaterialModule&#45;&gt;MatTableModule  -->
<g id="edge40" class="edge">
<title>MaterialModule&#45;&gt;MatTableModule </title>
<path fill="none" stroke="#000000" stroke-dasharray="5,2" d="M2433.4851,-116C2575.9807,-116 2954,-116 2954,-116 2954,-116 2954,-143.973 2954,-143.973"/>
<polygon fill="#000000" stroke="#000000" points="2950.5001,-143.973 2954,-153.973 2957.5001,-143.973 2950.5001,-143.973"/>
</g>
<!-- MatTabsModule  -->
<g id="node42" class="node">
<title>MatTabsModule </title>
<polygon fill="#fb8072" stroke="#000000" points="2877.3116,-190 2764.6884,-190 2764.6884,-154 2877.3116,-154 2877.3116,-190"/>
<text text-anchor="middle" x="2821" y="-167.8" font-family="Times,serif" font-size="14.00" fill="#000000">MatTabsModule </text>
</g>
<!-- MaterialModule&#45;&gt;MatTabsModule  -->
<g id="edge41" class="edge">
<title>MaterialModule&#45;&gt;MatTabsModule </title>
<path fill="none" stroke="#000000" stroke-dasharray="5,2" d="M2433.6344,-118C2551.1616,-118 2821,-118 2821,-118 2821,-118 2821,-143.7181 2821,-143.7181"/>
<polygon fill="#000000" stroke="#000000" points="2817.5001,-143.718 2821,-153.7181 2824.5001,-143.7181 2817.5001,-143.718"/>
</g>
<!-- MatToolbarModule  -->
<g id="node43" class="node">
<title>MatToolbarModule </title>
<polygon fill="#fb8072" stroke="#000000" points="2746.918,-190 2617.082,-190 2617.082,-154 2746.918,-154 2746.918,-190"/>
<text text-anchor="middle" x="2682" y="-167.8" font-family="Times,serif" font-size="14.00" fill="#000000">MatToolbarModule </text>
</g>
<!-- MaterialModule&#45;&gt;MatToolbarModule  -->
<g id="edge42" class="edge">
<title>MaterialModule&#45;&gt;MatToolbarModule </title>
<path fill="none" stroke="#000000" stroke-dasharray="5,2" d="M2433.6436,-120C2520.4263,-120 2682,-120 2682,-120 2682,-120 2682,-143.8129 2682,-143.8129"/>
<polygon fill="#000000" stroke="#000000" points="2678.5001,-143.8129 2682,-153.8129 2685.5001,-143.813 2678.5001,-143.8129"/>
</g>
<!-- MatTooltipModule  -->
<g id="node44" class="node">
<title>MatTooltipModule </title>
<polygon fill="#fb8072" stroke="#000000" points="2599.3241,-190 2472.6759,-190 2472.6759,-154 2599.3241,-154 2599.3241,-190"/>
<text text-anchor="middle" x="2536" y="-167.8" font-family="Times,serif" font-size="14.00" fill="#000000">MatTooltipModule </text>
</g>
<!-- MaterialModule&#45;&gt;MatTooltipModule  -->
<g id="edge43" class="edge">
<title>MaterialModule&#45;&gt;MatTooltipModule </title>
<path fill="none" stroke="#000000" stroke-dasharray="5,2" d="M2427.1929,-122.1532C2427.1929,-145.7566 2427.1929,-184 2427.1929,-184 2427.1929,-184 2462.3916,-184 2462.3916,-184"/>
<polygon fill="#000000" stroke="#000000" points="2462.3917,-187.5001 2472.3916,-184 2462.3916,-180.5001 2462.3917,-187.5001"/>
</g>
<!-- ServiceWorkerModule.register(args) -->
<g id="node9" class="node">
<title>ServiceWorkerModule.register(args)</title>
<polygon fill="#8dd3c7" stroke="#000000" points="1882.3954,-122 1879.3954,-126 1858.3954,-126 1855.3954,-122 1659.6046,-122 1659.6046,-86 1882.3954,-86 1882.3954,-122"/>
<text text-anchor="middle" x="1771" y="-99.8" font-family="Times,serif" font-size="14.00" fill="#000000">ServiceWorkerModule.register(args)</text>
</g>
<!-- ServiceWorkerModule.register(args)&#45;&gt;AppModule -->
<g id="edge8" class="edge">
<title>ServiceWorkerModule.register(args)&#45;&gt;AppModule</title>
<path fill="none" stroke="#000000" d="M1689.3154,-122.2228C1689.3154,-122.2228 1689.3154,-143.7269 1689.3154,-143.7269"/>
<polygon fill="#000000" stroke="#000000" points="1685.8154,-143.7269 1689.3154,-153.7269 1692.8154,-143.727 1685.8154,-143.7269"/>
</g>
<!-- { provide: SuperHeroService, useClass: SuperHeroService } -->
<g id="node11" class="node">
<title>{ provide: SuperHeroService, useClass: SuperHeroService }</title>
<ellipse fill="#fdb462" stroke="#000000" cx="907" cy="-104" rx="245.0331" ry="18"/>
<text text-anchor="middle" x="907" y="-99.8" font-family="Times,serif" font-size="14.00" fill="#000000">{ provide: SuperHeroService, useClass: SuperHeroService }</text>
</g>
<!-- { provide: SuperHeroService, useClass: SuperHeroService }&#45;&gt;AppModule -->
<g id="edge10" class="edge">
<title>{ provide: SuperHeroService, useClass: SuperHeroService }&#45;&gt;AppModule</title>
<path fill="none" stroke="#000000" d="M907,-122.2228C907,-142.3652 907,-172 907,-172 907,-172 1625.3284,-172 1625.3284,-172"/>
<polygon fill="#000000" stroke="#000000" points="1625.3285,-175.5001 1635.3284,-172 1625.3284,-168.5001 1625.3285,-175.5001"/>
</g>
<!-- { provide: HAMMER_GESTURE_CONFIG, useClass: MyHammerConfig } -->
<g id="node12" class="node">
<title>{ provide: HAMMER_GESTURE_CONFIG, useClass: MyHammerConfig }</title>
<ellipse fill="#fdb462" stroke="#000000" cx="334" cy="-104" rx="309.9287" ry="18"/>
<text text-anchor="middle" x="334" y="-99.8" font-family="Times,serif" font-size="14.00" fill="#000000">{ provide: HAMMER_GESTURE_CONFIG, useClass: MyHammerConfig }</text>
</g>
<!-- { provide: HAMMER_GESTURE_CONFIG, useClass: MyHammerConfig }&#45;&gt;AppModule -->
<g id="edge11" class="edge">
<title>{ provide: HAMMER_GESTURE_CONFIG, useClass: MyHammerConfig }&#45;&gt;AppModule</title>
<path fill="none" stroke="#000000" d="M334,-122.2921C334,-144.2057 334,-178 334,-178 334,-178 1625.334,-178 1625.334,-178"/>
<polygon fill="#000000" stroke="#000000" points="1625.334,-181.5001 1635.334,-178 1625.334,-174.5001 1625.334,-181.5001"/>
</g>
</g>
</svg>
